<?xml version="1.0" encoding="UTF-8" standalone="no"?><svg width="18" height="10" viewBox="0 0 18 10" fill="none" xmlns="http://www.w3.org/2000/svg">
<path d="M0.229934 1.8499L8.07994 9.73985C8.15249 9.81332 8.23891 9.87167 8.33418 9.91148C8.42945 9.9513 8.53165 9.97178 8.6349 9.97178C8.73816 9.97178 8.84041 9.9513 8.93568 9.91148C9.03096 9.87167 9.1174 9.81332 9.18996 9.73985L17.0299 1.8499C17.1112 1.7789 17.1771 1.69198 17.2235 1.59453C17.2699 1.49708 17.2959 1.39117 17.2998 1.28331C17.3036 1.17544 17.2854 1.06792 17.2461 0.96739C17.2068 0.866856 17.1473 0.775437 17.0714 0.698774C16.9954 0.622112 16.9045 0.561829 16.8043 0.52165C16.7042 0.481472 16.5968 0.462215 16.4889 0.465132C16.381 0.468048 16.2749 0.493026 16.177 0.538557C16.0792 0.584089 15.9917 0.649247 15.9199 0.729902L8.62996 8.05986L1.33992 0.729902C1.1886 0.597744 0.992602 0.528154 0.791823 0.535383C0.591044 0.542613 0.400564 0.626082 0.259139 0.768782C0.117713 0.911481 0.0359908 1.10274 0.0305622 1.30357C0.0251336 1.50441 0.0964231 1.69977 0.229934 1.8499Z" fill="white"/>
</svg>
