<?xml version="1.0" encoding="UTF-8" standalone="no"?><svg width="1340" height="423" viewBox="0 0 1340 423" fill="none" xmlns="http://www.w3.org/2000/svg">
<g opacity="0.07">
<path d="M489.53 394.039C485.68 396.349 477.92 389.479 476.53 400.259L489.53 394.169V394.039ZM974.6 81.5395L977.37 81.7195L978.17 73.5195L974.9 73.2895L974.6 81.5395ZM38.0499 169.039L33.1298 170.039C37.2798 174.529 34.1299 181.169 41.4899 184.839L38.0499 169.039ZM604.44 30.2295L590.72 24.0395V53.1995C600.94 48.8995 598.61 38.3595 604.44 30.2695V30.2295ZM489.53 394.039C489.307 393.614 489.045 393.209 488.75 392.829C488.446 392.468 488.111 392.133 487.75 391.829C487.393 391.509 487.008 391.221 486.6 390.969C486.191 390.717 485.759 390.502 485.31 390.329C484.864 390.149 484.402 390.012 483.93 389.919C483.459 389.821 482.98 389.768 482.5 389.759C482.018 389.75 481.536 389.78 481.06 389.849C480.586 389.921 480.121 390.038 479.67 390.199C474.15 391.639 468.38 392.119 461.49 393.199C460.434 391.77 459.227 390.46 457.89 389.289C453.836 385.757 448.719 383.681 443.35 383.389C438.44 382.959 434.1 377.159 429.28 374.139C423.792 370.345 418.006 367.001 411.98 364.139C396.29 357.489 385.68 346.459 385.09 329.259C384.6 314.879 385.09 299.949 388.53 286.029C393.1 266.696 399.773 247.921 408.43 230.039C421.053 204.907 435.293 180.619 451.06 157.329C471.18 127.559 493.42 99.2695 515.71 69.0295C508.1 69.3795 501.42 71.3595 496.13 69.4795C489.06 66.9795 487.48 77.9795 480.99 73.8095C467.57 81.6495 452.4 84.8095 438.09 90.2095C425.7 94.9195 414.46 102.659 402.76 109.099C397.76 111.869 392.82 114.829 387.81 117.599C385.972 118.24 384.192 119.037 382.49 119.979C361.43 137.919 335.62 148.459 313.81 165.799C287.68 186.569 262.76 208.729 236.99 229.869C211.22 251.009 187.79 275.259 163.49 298.319C162.89 298.879 162.87 300.089 162.49 301.319C182.27 296.319 201.7 290.669 221.49 286.859C233.27 284.699 245.64 284.699 257.7 285.069C263.47 285.219 270.7 286.149 272.55 296.219L253.49 293.819L252.84 295.439L267.32 302.549L261.27 313.359L277.13 328.839L265.59 339.409C257.31 338.779 248.73 337.249 240.23 337.699C232.06 338.069 224 341.179 215.83 341.629C207.66 342.079 199.88 349.179 192.83 343.299C188.152 346.449 183.301 349.334 178.3 351.939C163.17 358.709 147.09 362.749 132.37 370.679C128.04 373.019 121.56 371.569 116.02 371.849C116.02 379.049 110.6 382.659 105.32 384.079C96.57 386.569 90.5798 394.399 80.4198 394.739C76.0998 394.909 72.04 402.029 67.58 405.549C60.21 411.549 55.76 421.549 44.58 422.229C42.146 422.681 39.6363 422.487 37.2999 421.669C29.2099 417.199 21.8698 412.209 11.3598 415.189C4.13975 417.189 -0.770255 411.859 0.0997452 404.189C0.871992 396.421 2.28025 388.728 4.30995 381.189C18.64 330.629 26.0598 278.949 29.6298 226.689C30.8998 207.899 33.9498 189.179 30.6298 170.079C29.1398 161.429 36.6299 155.809 44.5299 152.629C52.9199 158.469 55.86 166.919 56.59 176.039C58.59 201.289 61.07 226.529 61.59 251.799C62.08 275.099 60.31 298.449 59.59 321.799C59.8573 323.994 60.3121 326.162 60.9498 328.279C70.1998 319.959 78.7198 313.149 86.3898 305.279C121.28 269.979 155.24 233.709 190.84 199.169C232.32 158.919 275.41 120.529 323.59 87.9795C352.007 68.3364 381.972 51.0329 413.19 36.2395C446.096 20.7534 480.868 9.59388 516.64 3.03947C529.932 0.658679 543.487 0.100204 556.93 1.37947C569.71 2.60947 582.42 6.51948 594.65 10.7395C612.65 16.9395 619.79 34.2495 608.44 50.5095C599.44 63.5095 596.73 78.4595 588.84 91.2095C574.53 114.309 560.13 137.419 544.39 159.549C523.21 189.319 503.32 219.749 487.69 252.799C481.786 265.839 479.044 280.09 479.69 294.389C485.59 290.059 490.76 286.929 495.36 283.019C507.1 273.019 518.45 262.569 530.21 252.609C576.4 213.609 622.29 174.139 669.21 135.889C683.73 124.059 701.07 115.719 717.15 105.839C719.31 104.569 721.93 104.129 723.64 102.559C736.84 90.5595 753.9 85.5595 769.03 77.0095C778.409 72.0262 788.313 68.102 798.56 65.3095C821.75 58.4195 845.12 52.1495 868.49 45.8595C876.73 43.5231 885.134 41.805 893.63 40.7195C896.89 40.3495 900.5 43.1195 906.25 45.3595C907.16 44.9695 906.25 35.9595 913.19 40.2595C937.25 33.4995 959.19 42.2595 980.91 50.3795C986.12 52.2995 990.51 56.8595 994.66 60.9495C996.54 62.7595 998.34 66.5195 997.75 68.7495C994.34 81.5195 993.43 95.0795 983.38 105.749C977.87 111.609 974.38 119.609 970.86 127.069C963.005 143.877 952.913 159.545 940.86 173.649C932.41 183.549 925.25 194.529 916.86 204.489C911.46 210.969 904.86 216.339 899.92 224.309C901.755 224.049 903.539 223.509 905.21 222.709C927.15 207.449 948.55 191.369 971.03 176.949C986.173 167.367 1002.07 159.036 1018.57 152.039C1034.07 145.379 1050.57 141.229 1066.67 135.829C1078.06 132.049 1089.28 127.719 1100.82 124.549C1111.99 121.479 1123.52 119.659 1134.82 117.019C1138.97 116.069 1142.82 113.799 1147.03 113.069C1153.52 111.919 1160.22 111.639 1166.81 110.909C1174.4 109.999 1181.94 109.269 1189.55 107.909C1195.02 107.218 1200.52 106.901 1206.03 106.959C1215.95 106.489 1225.8 105.129 1235.79 106.419C1236.7 97.1695 1243.38 109.529 1244.61 104.259C1246.38 96.5895 1251.31 101.259 1254.94 101.079C1259.68 100.889 1264.45 100.849 1269.21 101.079C1273.53 101.299 1277.86 102.079 1282.21 102.489C1287.05 102.959 1293.77 101.489 1296.43 104.109C1304.8 112.429 1315.26 109.449 1324.53 111.849C1329.4 113.099 1333.7 116.469 1339.67 119.609C1329.98 130.759 1314.25 123.609 1305.34 135.609C1307.5 140.409 1309.84 146.049 1312.34 151.669C1315.09 157.829 1313.34 161.289 1308.02 166.369C1293.34 180.679 1274.64 180.959 1257.09 181.149C1242.93 181.309 1230.09 185.049 1216.58 187.149C1199.97 189.944 1183.56 193.775 1167.43 198.619C1142.43 205.819 1117.71 213.929 1092.72 220.619C1084.59 222.779 1077.59 227.709 1068.53 228.229C1062.53 228.569 1058.53 236.049 1051.07 238.169C1041.92 240.739 1034.77 249.669 1026.01 254.509C1015.3 260.611 1005 267.405 995.17 274.849C982.98 283.849 970.11 291.929 958.05 301.049C948.52 308.269 939.92 316.679 930.6 324.199C914.11 337.489 897.33 350.459 880.75 363.649C876.47 366.839 872.439 370.349 868.69 374.149C862.08 381.369 855.01 387.339 845.39 390.559C841.06 391.979 838.34 397.559 834.06 399.439C829.78 401.319 825.98 401.439 822.56 405.919C819.92 409.429 812.92 409.639 807.13 411.589L798.93 400.589C796.77 404.699 795.28 407.419 793.81 410.209L782.81 404.909L784.76 387.259L782.01 386.329L776.46 391.429C774.29 388.919 771.46 386.759 770.38 383.909C765.88 371.819 755.25 366.829 745.05 361.809C728.92 353.899 726.5 349.809 727.88 333.149C729.07 318.739 736.25 306.649 742.28 294.419C757.76 263.059 776.87 233.66 797.19 205.32C815.19 180.32 835.49 156.929 855.55 131.829C849.76 133.449 844.37 132.179 839.06 137.209C835.19 140.889 828.12 140.979 822.84 143.439C776.39 165.049 735.41 194.929 696.69 228.279C662.86 257.439 628.15 285.599 593.78 314.129C574.32 330.239 554.87 346.379 535.26 362.129C527.78 368.129 519.48 373.069 511.48 378.539C504.13 383.619 496.81 388.779 489.48 393.899L489.53 394.039Z" fill="#B8D6F0"/>
</g>
</svg>
