<?xml version="1.0" encoding="UTF-8" standalone="no"?><svg width="181" height="200" viewBox="0 0 181 200" fill="none" xmlns="http://www.w3.org/2000/svg">
<g clip-path="url(#clip0_528_42)">
<path d="M96.6299 0H150.63C150.75 1.53 150.92 2.81 150.93 4.1C150.93 43.1 151.01 82.1 150.87 121.1C150.81 138.6 147.06 155.16 136.65 169.69C119.17 194.05 86.6499 205.32 56.1499 197.59C26.5299 190.08 4.26993 165 0.599927 135C-5.53007 84.89 36.1899 43.6 85.7999 50.67C86.5999 50.78 87.3899 50.99 88.4199 51.21V109.65C87.3975 109.297 86.3959 108.886 85.4199 108.42C76.9899 103.8 69.2599 104.26 62.6499 109.81C59.3252 112.505 56.9103 116.158 55.7331 120.272C54.556 124.387 54.6736 128.764 56.0699 132.81C58.7899 140.54 66.6699 146.13 75.2799 146.42C84.8199 146.75 91.8699 142.1 94.4199 132.89C95.7873 127.918 96.4934 122.787 96.5199 117.63C96.6899 80.47 96.6099 43.31 96.6199 6.15L96.6299 0Z" fill="white"/>
<path d="M150.82 181.779C151.08 173.389 157.68 167.329 166.22 167.659C170.11 167.881 173.754 169.639 176.348 172.547C178.943 175.454 180.276 179.274 180.055 183.164C179.833 187.055 178.075 190.698 175.168 193.293C172.26 195.888 168.44 197.221 164.55 196.999C156.27 196.619 150.55 190.299 150.82 181.779Z" fill="white"/>
</g>
<defs>
<clipPath id="clip0_528_42">
<rect width="180.1" height="199.97" fill="white"/>
</clipPath>
</defs>
</svg>
